<?xml version='1.0' encoding='utf-8'?>
<svg xmlns="http://www.w3.org/2000/svg" version="1.1" width="600px" height="976px" viewBox="0 0 600 976"> <g id="layer1"> <g> <g style="fill:rgb(0,0,0); fill-opacity:1.0; stroke-linejoin: miter"> <path d="M321.95615,453.22543C321.9478,453.23376,321.6858,453.26285,321.37802,453.2878C321.07025,453.31693,320.70422,453.36267,320.567,453.39594C320.42975,453.43338,320.17603,453.48746,320.0055,453.52075C319.16534,453.68292,318.84094,453.76196,318.59137,453.85764C318.51236,453.88672,318.37927,453.92416,318.30026,453.93665C318.08398,453.97824,317.75955,454.08636,317.73462,454.12796C317.72214,454.14874,317.65973,454.1654,317.59735,454.1654C317.53497,454.1654,317.4684,454.1779,317.45178,454.19452C317.4393,454.21115,317.40186,454.22778,317.37277,454.23193C317.28125,454.24442,316.79047,454.42325,316.4411,454.56467C316.25394,454.6437,316.0751,454.7061,316.046,454.7061C316.01273,454.7061,315.96698,454.72687,315.94202,454.75183C315.9129,454.78094,315.78397,454.83502,315.65088,454.88077C315.43042,454.95563,315.2308,455.04297,314.661,455.31332C314.54456,455.3674,314.4364,455.41315,314.4156,455.41315C314.3948,455.41315,314.3449,455.43808,314.3116,455.46722C314.2742,455.5005,314.15356,455.55872,314.0371,455.60028C313.92484,455.6419,313.82086,455.68765,313.80838,455.70428C313.7959,455.71674,313.62952,455.8041,313.43405,455.89145C313.24274,455.98294,313.00565,456.0994,312.91415,456.14514C312.82266,456.19507,312.58142,456.32397,312.37347,456.43213C312.16968,456.54025,311.96173,456.6484,311.91595,456.67337C311.8702,456.70248,311.6664,456.81476,311.45847,456.92706C311.25464,457.03937,310.9926,457.19327,310.8762,457.26395C310.506,457.4969,310.38123,457.57175,310.1608,457.67987C310.04434,457.7381,309.93622,457.80048,309.92374,457.8213C309.89877,457.8587,309.41632,458.15402,309.06696,458.3495C308.9796,458.3994,308.85483,458.48676,308.79245,458.54913C308.7259,458.60736,308.64688,458.6573,308.6136,458.6573C308.58032,458.6573,308.52625,458.6864,308.48883,458.71967C308.42227,458.78204,307.90237,459.13556,307.6279,459.30194C307.553,459.3477,307.3201,459.50574,307.10382,459.6513C306.52988,460.0506,306.46747,460.088,306.4467,460.11713C306.4342,460.1296,306.3635,460.17535,306.2928,460.21695C306.21793,460.2627,306.15555,460.31262,306.15555,460.32925C306.15555,460.3459,306.0807,460.39996,305.99335,460.44153C305.906,460.4873,305.80618,460.54968,305.77707,460.5788C305.74377,460.6079,305.62735,460.6994,305.5192,460.77844C305.41107,460.85748,305.22806,460.99472,305.11993,461.07788C305.00763,461.16522,304.89532,461.23593,304.87036,461.23593C304.84543,461.23593,304.82462,461.26505,304.82462,461.29834C304.82462,461.3316,304.79965,461.36072,304.77472,461.36072C304.7456,461.36072,304.63745,461.42725,304.53766,461.5063C304.4378,461.5853,304.34216,461.65186,304.32968,461.65186C304.3172,461.65186,304.20074,461.74753,304.07596,461.8598C303.9512,461.9721,303.83475,462.06778,303.8181,462.06778C303.80148,462.06778,303.6642,462.17175,303.5145,462.2965C303.36893,462.4213,303.23166,462.52527,303.21503,462.52527C303.1984,462.52527,303.06946,462.62924,302.93222,462.75403L302.68265,462.9828L302.18356,462.9828C301.90906,462.98694,301.6013,463.00357,301.4973,463.02438C301.06476,463.1034,300.8568,463.15332,300.81522,463.18658C300.79025,463.20322,300.68213,463.24066,300.57397,463.26978C300.36603,463.31967,299.85028,463.57755,299.5508,463.77716C299.45102,463.84372,299.29712,463.9352,299.20563,463.981C299.1183,464.02673,299.0434,464.0808,299.0434,464.1016C299.0434,464.11823,298.9935,464.15982,298.93112,464.1931C298.81882,464.24716,298.72733,464.32617,298.3821,464.6506C298.29477,464.7296,298.17413,464.82944,298.11176,464.86688C298.05353,464.90848,298.00363,464.96667,298.00363,464.99997C298.00363,465.02908,297.97034,465.06653,297.92877,465.07898C297.883,465.0956,297.82477,465.15387,297.79565,465.20795C297.76654,465.26614,297.72498,465.3119,297.7083,465.3119C297.6709,465.3119,296.7975,466.3725,296.7975,466.41406C296.7975,466.42654,296.7517,466.5014,296.69348,466.5763C296.63525,466.65115,296.5895,466.7343,296.5895,466.75928C296.5895,466.7884,296.57288,466.8092,296.55624,466.8092C296.53546,466.8092,296.43564,466.9423,296.32748,467.1045C296.18607,467.32077,296.06546,467.4497,295.85333,467.59528C295.69946,467.70758,295.54556,467.8282,295.5123,467.86563C295.4832,467.90305,295.43744,467.93216,295.41248,467.93216C295.3875,467.93216,295.3168,467.9779,295.25858,468.03613C295.10052,468.19003,294.92584,468.34808,294.90506,468.34808C294.83435,468.34808,293.78625,469.3837,293.41193,469.8246C292.98352,470.33615,292.97937,470.34033,292.77142,470.64807C292.36383,471.25116,292.1226,471.67957,291.99365,472.02893C291.95206,472.14124,291.88968,472.2743,291.86057,472.32007C291.83145,472.3658,291.8065,472.42404,291.8065,472.4573C291.8065,472.48642,291.76907,472.5904,291.72333,472.68192C291.67755,472.77756,291.64014,472.9065,291.64014,472.96887C291.64014,473.09366,291.5528,473.19348,291.49042,473.13525C291.4696,473.11444,291.40723,473.0895,291.349,473.08118C291.26166,473.06873,291.24084,473.0396,291.22006,472.88153C291.1868,472.6528,291.0412,472.266,290.95386,472.17865C290.9206,472.14124,290.79166,472.1038,290.67105,472.0913C290.3217,472.05804,290.33417,472.01645,290.879,471.24286C291.13272,470.88098,291.1868,470.03253,290.94556,470.12402C290.8707,470.15314,290.8707,470.1407,290.99545,469.68317C291.07864,469.37125,291.062,469.13,290.94556,468.90125C290.88318,468.78064,290.84158,468.74738,290.77087,468.75568C290.6669,468.7723,290.66272,468.75568,290.75006,468.58514C290.8,468.4895,290.82077,468.3356,290.82495,468.01535C290.82495,467.6244,290.81662,467.55783,290.72928,467.4123C290.55875,467.12946,290.52133,467.11697,290.34247,467.2958C290.1553,467.47882,290.15115,467.4622,290.25513,466.9506C290.31335,466.64697,290.31754,466.55548,290.2718,466.2976C290.24268,466.13126,290.20938,465.92328,290.1969,465.8318C290.18445,465.7403,290.1595,465.6488,290.13867,465.62384C290.1179,465.60303,290.10126,465.54898,290.10126,465.49908C290.09708,465.39508,289.99725,465.20377,289.964,465.25366C289.9515,465.27448,289.93073,465.4034,289.9141,465.54065C289.9016,465.67792,289.86417,465.85675,289.8309,465.93576C289.8018,466.0148,289.7477,466.17285,289.71445,466.2893L289.65622,466.4931L289.60214,466.3309C289.57303,466.23938,289.49402,466.0647,289.43164,465.9441L289.3152,465.71948L289.3817,465.36182C289.4649,464.87933,289.4441,463.77716,289.3443,463.56506C289.311,463.48602,289.25278,463.35297,289.22366,463.27393C289.19455,463.19492,289.128,463.07428,289.07394,463.0119C289.01987,462.94534,288.97827,462.87878,288.97827,462.85803C288.97827,462.77066,288.84933,462.78314,288.8036,462.87878C288.72873,463.04517,288.68713,462.95782,288.68713,462.63342C288.68713,462.4629,288.66217,462.23413,288.6289,462.126C288.59564,462.0137,288.5499,461.82654,288.52493,461.71423C288.4667,461.46884,288.16724,460.82004,288.109,460.82004C288.08823,460.82004,288.05496,460.90738,288.04248,461.0155C288.02582,461.1278,287.9884,461.30664,287.9593,461.4231C287.90936,461.61026,287.8678,461.79327,287.83035,462.04697C287.7971,462.2591,287.73886,462.51282,287.70142,462.60846C287.67645,462.6667,287.6224,462.86218,287.5808,463.04517C287.54337,463.22818,287.48514,463.42365,287.4602,463.48187C287.4311,463.5401,287.39365,463.66074,287.38116,463.7522C287.34375,463.9477,287.23145,464.31787,287.18985,464.3761C287.17322,464.39688,287.1441,464.49255,287.13162,464.58405C287.115,464.67557,287.07755,464.78784,287.04843,464.83362C287.01932,464.87933,286.94446,465.07898,286.88208,465.27863C286.81552,465.48242,286.7448,465.64465,286.72403,465.64465C286.70322,465.64465,286.69492,465.66125,286.7074,465.67792C286.73233,465.71948,286.6034,466.15204,286.54102,466.23108C286.51605,466.26434,286.45782,466.4099,286.41626,466.55133C286.36218,466.7385,286.2998,466.84662,286.22076,466.90485C285.89218,467.15442,285.5844,467.6327,285.5054,468.00702L285.4763,468.14844L285.36398,468.0403C285.22675,467.91138,285.18097,467.90723,285.02295,468.0195C284.9023,468.10684,284.73596,468.37305,284.73596,468.48532C284.73596,468.51862,284.711,468.5685,284.67773,468.59344C284.56958,468.68497,284.53217,469.01355,284.49057,470.30704C284.47394,470.86853,284.44482,471.35098,284.43234,471.3718C284.4157,471.39673,284.424,471.5714,284.44897,471.76273C284.47394,471.95404,284.5072,472.3076,284.52798,472.54883C284.56958,473.0479,284.6403,473.45966,284.69437,473.5262C284.71515,473.55118,284.74426,473.651,284.7609,473.74664C284.77753,473.84232,284.80664,473.9338,284.8233,473.9463C284.8441,473.95877,284.86072,474.06274,284.86072,474.17505C284.86072,474.2915,284.88153,474.4204,284.9023,474.4662C284.92728,474.50778,284.9564,474.66998,284.96887,474.82803C284.98135,474.98193,285.00214,475.1358,285.01462,475.16907C285.03125,475.20236,285.0354,475.2481,285.03125,475.2689C285.01877,475.32297,285.1061,475.70145,285.17267,475.87613C285.21008,475.9801,285.23505,476.44177,285.25586,477.4566C285.28497,478.92896,285.25586,479.58194,285.12692,480.45117C285.08948,480.69244,285.0354,481.05426,285.0063,481.26224C284.97717,481.466,284.9356,481.6906,284.91064,481.76132C284.88568,481.82788,284.8441,481.96512,284.81912,482.0608L284.77338,482.23962L284.44897,482.23962C284.16614,482.23962,284.1204,482.23132,284.10376,482.16476C284.08298,482.08575,283.85837,482.03168,283.54645,482.03168C283.4674,482.03168,283.40503,482.01086,283.40503,481.99008C283.40503,481.96512,283.43414,481.9485,283.47156,481.9485C283.52563,481.9485,283.5298,481.936,283.49237,481.89026C283.4674,481.86115,283.3177,481.8237,283.1555,481.80707C282.86435,481.77795,282.7978,481.73636,282.9392,481.67398C283.0224,481.63654,282.72293,481.5825,282.3985,481.5783C282.26126,481.57416,282.19055,481.55334,282.1656,481.50345C282.13647,481.45355,282.0533,481.4286,281.8703,481.4161C281.72888,481.4078,281.61658,481.38284,281.61658,481.36206C281.61658,481.34125,281.64154,481.32462,281.67065,481.32462C281.70392,481.32462,281.69977,481.30798,281.65817,481.28302C281.6249,481.26224,281.47934,481.24142,281.33377,481.24142C281.17987,481.24142,281.08008,481.2248,281.0967,481.20398C281.13412,481.13745,280.98026,481.07922,280.68494,481.0501C280.5144,481.03348,280.41043,481.00436,280.41043,480.97107C280.41043,480.90454,280.1401,480.8255,279.88638,480.8172C279.7325,480.81305,279.71585,480.80887,279.81567,480.7964C280.0985,480.75897,279.9363,480.7049,279.52454,480.69244C279.1627,480.67993,279.11694,480.67163,279.20428,480.63004C279.29578,480.58844,279.2625,480.58014,278.97552,480.58014C278.79254,480.58014,278.57626,480.5926,278.49307,480.6134C278.33917,480.64667,278.23938,480.6217,278.24353,480.55103C278.24353,480.5302,278.10626,480.51776,277.93158,480.52606C277.75275,480.5302,277.62796,480.5219,277.64044,480.5011C277.6654,480.4595,276.81696,480.3888,276.75455,480.42624C276.73376,480.43872,276.52997,480.4595,276.29706,480.46783C275.96432,480.48447,275.84787,480.50525,275.73557,480.5718C275.6607,480.6217,275.57336,480.65915,275.54425,480.65915C275.51514,480.65915,275.33627,480.734,275.14496,480.8255C274.95364,480.91702,274.77896,480.99188,274.76233,480.99188C274.74152,480.99188,274.675,481.02933,274.61258,481.07922C274.55435,481.12497,274.48782,481.15408,274.467,481.1416C274.37137,481.07922,273.73087,481.62408,273.44803,482.00256C273.32327,482.1731,273.13193,482.51828,273.13193,482.5807C273.13193,482.60562,273.09033,482.693,273.04044,482.77197C272.89072,483.0174,272.75763,483.44992,272.75763,483.6953C272.75763,483.87833,272.78256,483.96152,272.8824,484.11124C273.00717,484.2984,273.04044,484.4606,272.96973,484.5022C272.94894,484.51883,272.91983,484.60617,272.9032,484.706C272.88654,484.80167,272.84497,484.94305,272.81586,485.0221C272.72018,485.255,272.6661,486.12012,272.71185,486.6899C272.7493,487.1391,272.85327,487.60492,272.96973,487.8212C272.99054,487.8628,273.00717,487.92102,273.00717,487.95428C273.00717,487.9834,273.0321,488.03333,273.0654,488.05826C273.09866,488.0874,273.1569,488.1664,273.19016,488.24127C273.3482,488.5449,273.4605,488.7071,273.75165,489.0232C274.17172,489.4807,274.675,489.8176,275.21152,489.99643C275.33627,490.03387,275.49017,490.09625,275.55255,490.12537C275.61078,490.15863,275.68982,490.1836,275.72723,490.1836C275.81042,490.1836,275.81458,490.08377,275.7314,490.0172C275.69812,489.9881,275.669,489.94235,275.669,489.91324C275.669,489.88412,275.6399,489.83838,275.60663,489.80927C275.50266,489.72192,275.13666,488.9109,275.1824,488.8693C275.1949,488.8568,275.37787,488.8693,275.58585,488.8984C276.24298,488.98575,277.33267,488.89426,277.72778,488.71124C278.07715,488.55322,278.18945,488.4908,278.2685,488.4118C278.35583,488.31613,278.6844,488.2288,279.06705,488.19968C279.28748,488.1789,279.28748,488.1789,279.5079,488.40347C279.62436,488.5241,279.7533,488.64056,279.7907,488.6655C279.82816,488.68628,279.9363,488.76117,280.03613,488.83188C280.24823,488.9816,280.6392,489.20618,280.78476,489.2686C280.843,489.28937,280.91785,489.3268,280.95114,489.35175C280.9844,489.37256,281.17157,489.4682,281.36288,489.56387C281.62906,489.70114,281.7164,489.76352,281.7497,489.8592C281.77048,489.92157,281.80792,489.97565,281.8287,489.97565C281.84952,489.97565,281.90775,490.04633,281.96597,490.12952C282.0949,490.33746,283.0307,491.25665,283.32184,491.46875C283.44662,491.56027,283.60883,491.67673,283.6837,491.73077C283.75854,491.78485,283.82925,491.87634,283.84174,491.9346C283.85422,491.99698,283.92075,492.13422,283.99146,492.23822C284.058,492.34634,284.1121,492.44617,284.1121,492.45865C284.1121,492.47113,284.20773,492.62085,284.32004,492.79138C284.4365,492.95773,284.52798,493.10748,284.52798,493.12408C284.52798,493.1366,284.60284,493.24887,284.69437,493.3695C284.78586,493.4901,284.86072,493.60242,284.86072,493.61072C284.86072,493.63568,285.18515,494.07654,285.3723,494.30115C285.4347,494.38016,285.55115,494.52158,285.62186,494.60892C285.69672,494.69626,286.04608,495.06644,286.3996,495.43243L287.04428,496.08957L287.36868,496.72177C287.54755,497.07114,287.70975,497.37476,287.72638,497.39554C287.74716,497.4205,287.7929,497.5328,287.8345,497.64926C287.8761,497.76157,287.93433,497.88632,287.9593,497.91962C287.9884,497.95288,288.02582,498.03607,288.03833,498.10675C288.05496,498.1733,288.09656,498.26065,288.12567,498.2939C288.17972,498.35632,288.47504,499.1923,288.5582,499.52087C288.58316,499.61237,288.63724,499.8203,288.68298,499.9867C288.72458,500.15308,288.78696,500.51074,288.81607,500.78943C288.87845,501.38416,288.86597,501.41745,288.59564,501.31763C288.49582,501.27603,288.33777,501.24692,288.24213,501.24692C288.1007,501.24692,288.04663,501.27603,287.9052,501.40912C287.75134,501.55884,287.72638,501.56717,287.5517,501.55054C287.1524,501.5048,286.96524,501.65036,286.3788,502.45306C285.9837,502.99377,285.79654,503.3764,285.7383,503.7424C285.6385,504.36627,285.79654,504.5784,286.40793,504.64493C286.57013,504.66156,286.61588,504.6491,286.67828,504.5784C286.7157,504.52847,286.76144,504.49106,286.77393,504.49106C286.7864,504.49106,286.84048,504.57422,286.8987,504.67407C287.08588,505.01926,287.33542,505.04004,287.8054,504.75308C288.16724,504.53265,288.29617,504.39954,288.4376,504.07928C288.50415,503.92957,288.45422,503.9254,288.317,504.07098C288.25043,504.14166,288.17972,504.19992,288.1548,504.19992C288.13397,504.19992,288.09238,504.229,288.06326,504.2623C288.03415,504.29556,287.99673,504.32468,287.98007,504.32468C287.92603,504.32468,287.90106,504.06265,287.93848,503.88797C287.9593,503.79648,287.99673,503.6176,288.02582,503.49286C288.05496,503.36807,288.09656,503.235,288.12567,503.20172C288.1506,503.16846,288.20053,503.07278,288.2338,502.99377C288.2629,502.91473,288.33362,502.78165,288.3877,502.69846C288.47086,502.56952,288.5166,502.5404,288.67465,502.51962C288.77863,502.50714,288.87845,502.50714,288.89926,502.51962C288.9575,502.5529,288.945,503.0104,288.88678,503.07278C288.84933,503.10605,288.8327,503.2558,288.8327,503.50534C288.82855,503.90875,288.7537,504.1791,288.62476,504.22485C288.5915,504.23734,288.56238,504.27063,288.56238,504.2914C288.56238,504.31638,288.5166,504.37042,288.45837,504.4162C288.2338,504.59088,288.37936,504.6283,288.70377,504.47443C288.90756,504.3746,289.04898,504.25815,289.2403,504.0252C289.29022,503.96698,289.3734,503.9046,289.42746,503.88797C289.5148,503.86304,289.51898,503.87134,289.51898,504.12088C289.51898,504.43283,289.61877,504.62415,289.85587,504.7406C290.05133,504.84457,290.43814,504.8529,290.51715,504.7614C290.5962,504.66574,290.62115,504.68237,290.67105,504.8737C290.70016,504.9735,290.77502,505.1066,290.84988,505.1773C290.96634,505.28546,291.0121,505.30206,291.28662,505.31458C291.58606,505.3312,291.6027,505.32703,291.71085,505.21057C291.77737,505.14404,291.90216,505.0359,291.99365,504.96936C292.08514,504.9028,292.20993,504.79883,292.27234,504.73227C292.33054,504.6699,292.43454,504.6075,292.50107,504.59503C292.56348,504.58255,292.64664,504.55344,292.67993,504.53265C292.7132,504.51184,292.81717,504.45776,292.90866,504.40787C293.00018,504.36212,293.13742,504.23734,293.21228,504.1375C293.28717,504.03354,293.37866,503.95038,293.41193,503.95038C293.44937,503.95038,293.5492,503.8755,293.63654,503.78815C293.85696,503.56357,293.88608,503.3556,293.76544,502.87314C293.6698,502.47803,293.65732,502.3283,293.7197,502.3283C293.7405,502.3283,293.80704,502.24512,293.86526,502.1453C293.9235,502.04132,294.04413,501.88327,294.1273,501.79175C294.21048,501.70026,294.3519,501.48816,294.4434,501.32178C294.53073,501.15543,294.6264,500.98904,294.65552,500.95578C294.68463,500.92252,294.73868,500.79358,294.78445,500.67297C294.82605,500.5565,294.8801,500.45667,294.9092,500.45667C294.93417,500.45667,295.04648,500.57312,295.15875,500.71454C295.27106,500.8601,295.3917,501.00568,295.42496,501.04727C295.51645,501.1471,295.65787,501.3301,295.77432,501.49646C295.949,501.74603,296.32748,502.295,296.50217,502.55704C296.5937,502.6943,296.71014,502.86066,296.7559,502.93137C297.00958,503.3057,297.21338,503.6176,297.21338,503.63428C297.21338,503.64258,297.30072,503.77985,297.4047,503.93787C297.50867,504.09177,297.61267,504.25815,297.63763,504.3039C297.65842,504.34964,297.74158,504.49936,297.82062,504.63663C297.89548,504.77386,297.99945,504.96936,298.04523,505.07333C298.09097,505.1773,298.14502,505.2896,298.16998,505.32288C298.1908,505.35614,298.28644,505.5433,298.3821,505.7388C298.4736,505.93427,298.56927,506.12143,298.59006,506.15472C298.62335,506.20877,298.9519,506.85345,299.1848,507.3068C299.2264,507.39413,299.28464,507.48148,299.31375,507.50644C299.3387,507.52722,299.3886,507.61456,299.41772,507.6936C299.48428,507.85995,299.63818,508.1386,300.24957,509.21167C300.37433,509.43213,300.51575,509.68167,300.5615,509.76483C300.66547,509.95203,300.7653,510.1142,300.9192,510.34296C300.98572,510.43863,301.0398,510.52597,301.0398,510.53845C301.0398,510.5509,301.12714,510.6965,301.23944,510.8587C301.34756,511.0209,301.46402,511.20807,301.4973,511.2663C301.53473,511.32867,301.6387,511.4909,301.72607,511.624C301.81757,511.75293,301.9257,511.92346,301.97144,511.99414C302.01303,512.0648,302.05878,512.1314,302.07544,512.14386C302.09207,512.1564,302.1503,512.23956,302.20435,512.33105C302.25842,512.42255,302.32913,512.51404,302.35825,512.5307C302.38736,512.5473,302.41232,512.5847,302.41232,512.6055C302.41232,512.6305,302.48718,512.7594,302.57867,512.8925C302.67017,513.02563,302.74506,513.1587,302.74506,513.1795C302.74506,513.20447,302.7617,513.2252,302.78247,513.2252C302.80328,513.2252,302.83655,513.26685,302.84903,513.3168C302.86566,513.37085,302.9239,513.47064,302.97797,513.54553C303.03204,513.6162,303.0778,513.6911,303.0778,513.71185C303.0778,513.73267,303.13184,513.8117,303.1984,513.89075C303.26077,513.9697,303.3606,514.11945,303.41467,514.2193C303.57272,514.51044,303.60184,514.552,303.68918,514.65186C303.73492,514.7018,303.85553,514.87225,303.95535,515.0345C304.05103,515.1925,304.15915,515.35474,304.18826,515.388C304.22156,515.42126,304.3172,515.5544,304.4087,515.67914C304.57507,515.9162,304.69568,516.0659,304.8579,516.2448C304.9078,516.30304,304.9494,516.36127,304.9494,516.3737C304.9494,516.407,305.3154,516.8437,305.436,516.95184C305.49008,517.0018,305.53168,517.0517,305.53168,517.06415C305.53168,517.10156,306.20963,517.767,306.55066,518.05817C307.20782,518.62384,307.2702,518.6737,307.30347,518.6737C307.32428,518.6737,307.37418,518.62384,307.42407,518.5656L307.50726,518.4616L307.69443,518.6363C307.97726,518.8983,308.6843,519.5097,308.85483,519.6428C308.93802,519.7052,309.02536,519.7801,309.04614,519.8092C309.0836,519.8549,309.1418,519.90485,309.43295,520.1211C309.487,520.15857,309.57437,520.22925,309.62427,520.275C309.85718,520.483,310.34796,520.7533,310.72644,520.88226C310.94272,520.95294,311.10492,520.98206,311.10492,520.9488C311.10492,520.83234,310.7306,520.32074,310.29388,519.8466C309.7865,519.29346,309.48285,518.9441,309.40384,518.82764C309.3664,518.77356,309.29153,518.6862,309.23746,518.628C309.18756,518.5739,309.0919,518.4616,309.0337,518.38257C308.97128,518.3036,308.8382,518.13306,308.73422,518.0083C308.63025,517.8835,308.50546,517.7213,308.45972,517.6506C308.41812,517.57574,308.3183,517.4468,308.24344,517.35944C308.0646,517.1432,307.28268,516.0202,307.04977,515.6334C307.02896,515.59595,306.93332,515.4545,306.8418,515.3215C306.57977,514.92633,306.3635,514.51874,306.3635,514.4106C306.3635,514.37317,306.33856,514.29,306.30527,514.23175C306.23874,514.09454,306.16803,513.8824,306.13058,513.6703C306.1181,513.5871,306.089,513.5039,306.0682,513.49146C306.04742,513.47894,306.03076,513.4291,306.03076,513.37915C306.03076,513.30426,306.04324,513.3126,306.13477,513.4332C306.193,513.5122,306.23874,513.5996,306.23874,513.62866C306.23874,513.65784,306.25537,513.68274,306.27615,513.68274C306.29697,513.68274,306.34686,513.7368,306.3926,513.80334C306.45917,513.91565,306.74197,514.3399,306.91666,514.5978C306.95825,514.656,307.0747,514.8307,307.18286,514.9929C307.37418,515.2757,307.5946,515.5752,308.15192,516.3238C308.30167,516.52344,308.49298,516.7897,308.57617,516.9186C308.6635,517.04333,308.80908,517.23883,308.90057,517.347C308.99207,517.4551,309.06696,517.5591,309.06696,517.5799C309.06696,517.5965,309.13766,517.6922,309.225,517.78784C309.30817,517.88763,309.44543,518.04987,309.52444,518.1538C309.774,518.4783,309.97778,518.73193,310.04434,518.811C310.0818,518.8526,310.17743,518.9732,310.25647,519.0813C310.33966,519.18945,310.43945,519.31006,310.48105,519.34753C310.52264,519.3891,310.64325,519.54297,310.7514,519.68854C310.85538,519.8383,310.95935,519.9631,310.97598,519.9714C310.9968,519.9797,311.07996,520.067,311.1673,520.171C311.3545,520.40393,311.66226,520.75745,311.84525,520.9571C311.97003,521.0902,311.9825,521.0985,311.9534,521.00287C311.93677,520.94464,311.88684,520.84064,311.83694,520.7741C311.7163,520.6036,311.65393,520.4954,311.6082,520.3998C311.5874,520.354,311.5042,520.2251,311.42102,520.10864C311.33783,519.99634,311.2713,519.88403,311.2713,519.86743C311.2713,519.8466,311.21722,519.751,311.1465,519.6511C311.07996,519.55133,311.02173,519.45984,311.02173,519.4515C311.02173,519.4432,310.92194,519.28094,310.80548,519.09796C310.427,518.5157,310.26477,518.2495,310.28558,518.23285C310.3064,518.2121,310.68903,518.5989,310.8221,518.7777C310.8762,518.84424,311.01343,518.99817,311.12573,519.1105C311.2422,519.2269,311.4668,519.45984,311.62897,519.6304C312.01163,520.03796,312.8767,520.849,313.25104,521.15674C313.74597,521.5602,313.81668,521.6184,314.1411,521.85547C314.3116,521.9802,314.47385,522.0842,314.49878,522.0842C314.52374,522.0842,314.5695,522.11334,314.5986,522.1466C314.62775,522.1799,314.74417,522.25476,314.8648,522.31714C314.98126,522.37537,315.1809,522.4794,315.30566,522.5459C315.53442,522.6665,315.96283,522.8121,315.9919,522.78296C316.0044,522.77466,315.76318,522.53345,315.4637,522.24646C314.2035,521.0528,312.33188,519.14374,312.19464,518.915C312.1572,518.8526,312.10312,518.7985,312.074,518.7985C312.0449,518.7985,312.01996,518.77356,312.01996,518.7403C312.01996,518.70703,311.97833,518.6446,311.92844,518.603C311.8286,518.524,311.3836,518.0166,311.1673,517.74207C311.10077,517.6506,310.94272,517.4759,310.82626,517.347C310.70566,517.218,310.60583,517.10156,310.60583,517.08496C310.60583,517.06,310.53098,516.9685,310.1899,516.55255C310.04434,516.3737,309.69498,515.92456,309.51614,515.6833C309.44128,515.5835,309.3456,515.46704,309.30817,515.4254C309.2666,515.3797,309.2333,515.3298,309.2333,515.30896C309.2333,515.29236,309.1917,515.23,309.13766,515.1759C309.0836,515.1218,308.94635,514.943,308.83405,514.7849C308.72174,514.62274,308.61777,514.4855,308.59695,514.4813C308.58032,514.473,308.53458,514.40643,308.49713,514.33575C308.45972,514.26086,308.36404,514.12366,308.28503,514.0238C308.206,513.92816,308.08954,513.7743,308.0313,513.68274C307.97308,513.5954,307.81088,513.35834,307.67365,513.1587C307.53638,512.95905,307.3908,512.74695,307.3534,512.6887C307.31595,512.6305,307.26605,512.5598,307.2411,512.5307C307.21613,512.50574,307.1579,512.4059,307.11215,512.31854C307.06226,512.22705,306.98737,512.1189,306.9458,512.0815C306.90002,512.0399,306.8626,511.99,306.8626,511.96918C306.8626,511.9484,306.72534,511.72382,306.5548,511.46594C306.1098,510.788,305.96838,510.55923,305.90182,510.40533C305.87274,510.33466,305.83112,510.27228,305.8145,510.27228C305.79785,510.27228,305.73547,510.1849,305.67725,510.07263C305.55246,509.83972,305.46097,509.68582,305.31955,509.46124C305.25717,509.36972,305.19894,509.25327,305.1823,509.19922C305.16568,509.1493,305.13657,509.1077,305.11993,509.1077C305.09912,509.1077,305.0617,509.04532,305.0326,508.97046C304.9993,508.89975,304.95355,508.80823,304.92444,508.77496C304.87454,508.7126,304.6749,508.3549,304.52933,508.0596C304.48773,507.9764,304.43365,507.8974,304.41287,507.88074C304.39206,507.8683,304.35046,507.78925,304.32135,507.7019C304.29642,507.6187,304.24234,507.5106,304.20074,507.46484C304.15915,507.4191,304.03854,507.20282,303.93042,506.98654C303.82227,506.77026,303.68085,506.49576,303.61432,506.38345C303.5519,506.267,303.4812,506.13806,303.45627,506.09232C303.3897,505.93842,303.01538,505.1898,302.9239,505.0151C302.874,504.92358,302.8324,504.81546,302.8324,504.778C302.82822,504.7406,302.7991,504.68652,302.76584,504.6574C302.73257,504.6283,302.70346,504.58255,302.70346,504.5576C302.70346,504.53265,302.67435,504.4536,302.6369,504.3871C302.5995,504.31638,302.53293,504.1708,302.48718,504.05432C302.44144,503.94205,302.3624,503.75073,302.30835,503.63428C302.25427,503.51782,302.19604,503.35144,302.18356,503.2724C302.16693,503.18924,302.1295,503.1019,302.09622,503.07278C302.06296,503.04782,302.038,503.00208,302.038,502.97296C302.038,502.9397,302.00888,502.8648,301.97562,502.79828C301.94232,502.7359,301.86746,502.56952,301.80508,502.43228C301.74686,502.295,301.672,502.1328,301.6387,502.07043C301.60544,502.0122,301.58047,501.93317,301.58047,501.90405C301.58047,501.8708,301.52643,501.73352,301.45987,501.59628C301.3933,501.4632,301.29767,501.24692,301.24774,501.12213C301.19785,500.99738,301.14377,500.87674,301.12714,500.8518C301.1105,500.831,301.0689,500.72702,301.0398,500.62305C301.00653,500.51907,300.9483,500.386,300.9067,500.32358C300.8651,500.26538,300.83185,500.20297,300.83185,500.1822C300.83185,500.16553,300.77777,500.04077,300.71124,499.89935C300.64468,499.75793,300.57813,499.5874,300.56567,499.51257C300.549,499.44183,300.50742,499.35867,300.47415,499.32956C300.4409,499.3046,300.41592,499.25885,300.41592,499.2256C300.41592,499.16318,300.29532,498.88867,300.22876,498.79303C300.20383,498.75977,300.14975,498.62665,300.104,498.5019C300.0624,498.3771,299.9917,498.2149,299.9501,498.14835C299.9085,498.07764,299.87524,497.99863,299.87524,497.96533C299.87524,497.93207,299.85028,497.87384,299.82117,497.84058C299.7879,497.80313,299.72134,497.66174,299.66727,497.52448C299.61322,497.38724,299.55914,497.25415,299.5425,497.23334C299.52588,497.20837,299.48013,497.08777,299.43436,496.963C299.39276,496.83823,299.34286,496.71344,299.32623,496.68848C299.2763,496.6178,299.34286,496.58453,299.41357,496.64273C299.50507,496.72177,300.0707,496.87982,300.25372,496.87982C300.44504,496.87982,300.52408,496.78833,300.5615,496.5346C300.5906,496.34744,300.66547,496.27673,300.72787,496.3807C300.77777,496.4639,301.35175,496.7093,301.64703,496.77582C301.80923,496.81326,302.06296,496.83823,302.20853,496.8299L302.4747,496.81744L302.46222,496.0563C302.44977,495.3326,302.44977,495.29102,302.52463,495.31183C302.56622,495.32428,302.64523,495.34924,302.70346,495.36172C302.7617,495.37836,302.86566,495.4158,302.93222,495.44492C303.19006,495.5489,303.36893,495.59464,303.6351,495.6196C303.789,495.63208,303.9221,495.6612,303.93457,495.67783C303.94705,495.6986,303.98862,495.71524,304.0302,495.71524C304.1051,495.71524,304.10925,495.6695,304.0843,494.92087L304.0635,494.1223L304.1841,494.15143C304.25067,494.16388,304.4503,494.18884,304.625,494.20547C304.89532,494.2263,304.95355,494.21796,304.97437,494.16388C304.98682,494.12646,304.97852,493.748,304.95355,493.31958C304.93277,492.88702,304.9161,492.5335,304.9203,492.52936C304.92444,492.5252,305.04504,492.5418,305.18646,492.56262C305.32788,492.5876,305.51086,492.59174,305.5982,492.57925L305.7521,492.55014L305.71884,492.31308C305.6731,491.95123,305.65643,491.07782,305.69806,491.01126C305.73132,490.96136,305.75626,490.96136,305.87274,491.0196C306.09732,491.13187,306.24704,491.17346,306.50906,491.20258C306.8626,491.24002,306.90417,491.19843,306.85013,490.84906C306.81268,490.59534,306.80438,490.07544,306.82516,489.227C306.8335,488.87762,306.80853,488.66135,306.73782,488.49915C306.67545,488.35358,306.57147,488.00836,306.57147,487.94598C306.57147,487.90854,306.64215,487.9418,306.77527,488.03748C306.88754,488.12067,306.99152,488.1872,307.004,488.1872C307.02066,488.1872,307.12878,488.2579,307.2494,488.34525C307.4823,488.51578,308.06876,488.81107,308.17688,488.81107C308.21017,488.81107,308.27255,488.8277,308.31,488.8485C308.41812,488.90674,308.91306,488.94415,308.9796,488.9026C309.02536,488.8693,309.01703,488.76947,308.92554,488.3078C308.859,487.95428,308.8174,487.57996,308.81323,487.28052C308.80493,487.02264,308.78412,486.71902,308.75916,486.60672C308.73837,486.49445,308.73004,486.39044,308.74252,486.37796C308.755,486.36548,308.85483,486.40292,308.96298,486.46115C309.0711,486.51938,309.1917,486.56512,309.225,486.56512C309.26242,486.56512,309.32065,486.59424,309.3581,486.6275C309.51196,486.76477,310.27725,486.9769,310.6391,486.98105C310.81793,486.98105,310.85538,486.96857,310.85538,486.9062C310.85538,486.83133,310.7639,486.3946,310.69733,486.14923C310.67236,486.0702,310.64325,485.7749,310.6308,485.49207L310.61,484.98465L310.9926,484.98465C311.33368,484.9805,311.72464,484.91812,311.7912,484.8557C311.80368,484.84326,311.77454,484.6852,311.72464,484.5022C311.64148,484.1778,311.5874,483.81595,311.525,483.17545C311.49173,482.83023,311.45428,482.6888,311.33368,482.46005C311.29626,482.3852,311.27545,482.30615,311.29208,482.28122C311.30457,482.26044,311.41687,482.23962,311.53333,482.23962C311.7621,482.23962,312.12393,482.12317,312.31525,481.99008C312.4026,481.92352,312.4317,481.8653,312.45248,481.66983C312.49408,481.30383,312.4109,480.76727,312.26532,480.46783C312.1988,480.32642,312.1447,480.18085,312.1447,480.14343C312.1447,480.106,312.12808,480.07687,312.10312,480.07687C312.08234,480.07687,312.0324,480.0145,311.995,479.9396C311.95755,479.86893,311.9118,479.79822,311.89517,479.7857C311.87854,479.77325,311.84525,479.72333,311.81613,479.66928C311.64978,479.35733,310.88034,478.57126,310.19824,478.02225C309.89047,477.7727,309.84888,477.702,310.05267,477.77686C310.16498,477.81845,310.21902,477.83508,310.77222,477.98065C311.22137,478.0971,311.5666,478.16367,311.8744,478.18863C312.0366,478.20526,312.19046,478.23853,312.22375,478.2635C312.30276,478.32587,313.7751,478.32587,313.85413,478.2635C313.8874,478.23853,313.99136,478.20526,314.0912,478.19278C314.32825,478.16367,314.76913,477.93906,314.96045,477.7519C315.15176,477.56476,315.393,477.232,315.46786,477.05316C315.5178,476.93256,315.5136,476.90344,315.45538,476.81195C315.41797,476.75372,315.37222,476.70798,315.3514,476.70798C315.33063,476.70798,315.30566,476.683,315.29318,476.64972C315.27655,476.60815,315.3639,476.54575,315.58432,476.44177C315.87964,476.30035,316.2997,475.99677,316.49518,475.78464C316.66986,475.5933,316.81128,475.3396,316.78632,475.26474C316.7572,475.1774,316.58252,474.98608,316.2498,474.68246C316.12085,474.56183,316.01273,474.45786,316.01273,474.44537C316.01273,474.43707,316.0751,474.41626,316.14996,474.39963C316.70313,474.28735,317.3894,474.00867,317.70966,473.76746C318.18796,473.4056,318.65793,472.76508,318.7328,472.3658C318.7619,472.20776,318.75775,472.19946,318.47076,471.92078C318.30856,471.76273,318.1505,471.6338,318.12555,471.6338C318.03406,471.6338,318.35016,471.48407,318.64545,471.38843C318.79935,471.33435,318.92413,471.28027,318.92413,471.2678C318.92413,471.25116,318.98236,471.21375,319.05722,471.18045C319.12793,471.1472,319.29846,471.0432,319.4357,470.9517C319.57294,470.85605,319.7185,470.76038,319.75595,470.7396C319.85162,470.68137,320.15106,470.37775,320.3507,470.13235C320.50043,469.9452,320.75415,469.49185,320.75415,469.40866C320.75,469.30054,320.49213,469.11752,319.993,468.85965C319.90152,468.80975,319.88904,468.7848,319.9223,468.73904C319.95142,468.70993,320.01382,468.6725,320.05957,468.65585C320.19266,468.6184,320.78326,468.31897,321.0453,468.16092C321.17004,468.0819,321.3281,467.98624,321.3988,467.9488C321.60678,467.8282,322.09338,467.43304,322.3554,467.16687C322.58417,466.93396,322.9585,466.45566,322.9585,466.39328C322.9585,466.35168,322.75885,466.2685,322.6715,466.2685C322.6299,466.2685,322.53427,466.23938,322.4594,466.20197C322.3887,466.16452,322.2764,466.1354,322.214,466.1354C322.15576,466.1354,322.08923,466.11877,322.06427,466.10214C322.0435,466.0855,321.8813,466.06055,321.71075,466.0439C321.54022,466.02728,321.24908,465.98984,321.06607,465.95657C320.8831,465.92328,320.50876,465.88586,320.23425,465.86923C319.95975,465.84845,319.7185,465.8318,319.69357,465.82764C319.67276,465.8235,319.38162,465.81516,319.0489,465.811C318.58307,465.80682,318.4666,465.79437,318.54147,465.76108C318.59137,465.73615,318.633,465.6987,318.633,465.67792C318.633,465.66125,318.6496,465.64465,318.67456,465.64465C318.69537,465.64465,318.84924,465.58224,319.01563,465.50323C319.18198,465.42834,319.365,465.34933,319.42322,465.3327C319.48145,465.31607,319.56464,465.28278,319.61038,465.25366C319.65613,465.22455,319.77673,465.17883,319.88074,465.1497C319.98468,465.12057,320.13443,465.06235,320.21347,465.02075C320.29248,464.9792,320.4422,464.91678,320.5462,464.87518C320.65015,464.83777,320.7874,464.77954,320.8498,464.74628C320.91635,464.71298,320.9912,464.68805,321.01617,464.68805C321.04114,464.68805,321.14508,464.6506,321.24908,464.60068C321.35306,464.55493,321.47784,464.4967,321.5236,464.48007C321.8064,464.35947,322.33463,464.13486,322.4386,464.0891C322.5093,464.05585,322.63824,464.00177,322.72974,463.96436C322.82123,463.9269,322.92523,463.877,322.9585,463.8562C322.99176,463.83542,323.08743,463.7855,323.16644,463.74808C323.24548,463.71063,323.39935,463.63577,323.50333,463.5817C323.61148,463.52765,323.7238,463.48187,323.75705,463.48187C323.7903,463.48187,323.85272,463.44446,323.89014,463.40286C323.93173,463.35712,324.01074,463.31134,324.07312,463.2947C324.13138,463.28223,324.2312,463.23233,324.29358,463.18658C324.35596,463.145,324.4849,463.07013,324.58472,463.02438C324.85922,462.89545,325.1129,462.75403,325.1961,462.68332C325.23352,462.65005,325.41653,462.5336,325.59955,462.42545C326.04874,462.16342,326.09448,462.1343,326.11945,462.10938C326.161,462.06778,326.47714,461.8723,326.54785,461.84735C326.58527,461.83487,326.61853,461.80573,326.61853,461.7891C326.61853,461.7683,326.69342,461.71008,326.7849,461.65186C326.8764,461.59363,326.95126,461.52292,326.95126,461.48965C326.95126,461.43973,326.78076,461.43558,325.81998,461.45636C325.1961,461.47302,324.5639,461.5063,324.41418,461.53125C324.26447,461.5562,323.8735,461.60193,323.54077,461.63522C322.62576,461.72256,322.24728,461.77246,322.1932,461.81406C322.16824,461.8307,321.99774,461.8598,321.81473,461.87646L321.482,461.90558L321.60678,461.82654C321.6775,461.78494,321.7981,461.7267,321.8771,461.69345C321.95615,461.66434,322.13916,461.5853,322.28473,461.51877C322.4303,461.45636,322.56335,461.4023,322.58002,461.4023C322.63824,461.4023,323.6489,460.9323,323.8319,460.82004C323.86517,460.79922,323.97748,460.74518,324.08145,460.69525C324.18542,460.6495,324.37677,460.54968,324.50568,460.47482C324.86337,460.271,325.17114,460.0963,325.2876,460.02563C325.34583,459.99652,325.3999,459.95493,325.41238,459.94244C325.4415,459.90503,325.7867,459.64716,325.93228,459.55566C326.3482,459.28946,327.20914,458.33704,327.3048,458.03342L327.33392,457.93774L326.47296,457.96686C325.99466,457.9835,325.56213,458.01678,325.50806,458.03757C325.40405,458.07498,325.3708,458.01678,325.4706,457.9627C325.56213,457.91278,325.9905,457.53845,326.18182,457.343C326.552,456.96033,326.81818,456.59848,326.76825,456.54443C326.72668,456.50284,324.65125,456.52362,324.18542,456.5694C323.97748,456.59018,323.76538,456.62762,323.7196,456.65674C323.6697,456.68167,323.56573,456.70248,323.48254,456.70248C323.4035,456.70248,323.29538,456.71912,323.2413,456.7399C323.18726,456.75653,323.03336,456.78564,322.8961,456.8023L322.64655,456.82724L322.763,456.73575C322.82538,456.68167,322.97928,456.58185,323.0999,456.51532C323.3536,456.3739,323.92758,455.99957,323.9567,455.95798C323.96918,455.94135,324.0482,455.88727,324.13553,455.83322C324.21872,455.7833,324.28943,455.72507,324.28943,455.70844C324.28943,455.6918,324.34348,455.6502,324.40588,455.61276C324.65543,455.46304,325.70352,454.39417,325.70352,454.286C325.70352,454.23193,325.56213,454.19867,325.20444,454.16125C323.9525,454.04062,323.782,454.00735,323.97748,453.9325C324.01074,453.91583,324.03986,453.88672,324.03986,453.86594C324.03986,453.84515,324.12305,453.74115,324.22705,453.63718C324.331,453.53735,324.41418,453.42505,324.41418,453.39594C324.41418,453.33356,324.37677,453.32526,323.76538,453.25452C323.4035,453.21295,321.99356,453.188,321.95615,453.22543 Z M291.36978,498.59753C291.4405,498.6225,291.56943,498.67242,291.66092,498.714C291.75244,498.75558,291.88135,498.80133,291.94376,498.818C292.05188,498.84293,292.264,499.1008,292.264,499.20062C292.264,499.2214,292.30142,499.27963,292.3472,499.3337C292.39294,499.3878,292.44284,499.47928,292.45947,499.5375C292.47195,499.59573,292.52603,499.70386,292.5801,499.77875C292.63416,499.84946,292.67993,499.9368,292.67993,499.96588C292.67993,499.99503,292.7132,500.08652,292.7548,500.16553C292.87955,500.39844,293.08334,501.35922,293.02512,501.41745C292.996,501.44238,292.7964,501.41327,292.2432,501.30515C292.1434,501.28436,292.0685,501.31348,291.8564,501.45486C291.62766,501.60876,291.57358,501.62958,291.4405,501.6046C291.23254,501.57132,290.97882,501.64618,290.8374,501.7793C290.77087,501.84167,290.6253,502.02884,290.513,502.1952C290.39655,502.36572,290.2718,502.53625,290.23434,502.57785C290.1969,502.61945,290.10126,502.74005,290.02222,502.8482C289.88913,503.02704,289.8725,503.03534,289.82257,502.9688C289.79346,502.92722,289.76852,502.8357,289.76852,502.76086C289.76852,502.68597,289.7519,502.6111,289.72693,502.59863C289.66037,502.55704,289.677,502.4281,289.781,502.2576C289.8309,502.17026,289.89328,501.97894,289.9224,501.8292C290.03055,501.2303,290.147,500.98904,290.17612,501.3093C290.1886,501.43408,290.20108,501.4507,290.25098,501.40912C290.28424,501.38416,290.3092,501.33426,290.3092,501.30515C290.3092,501.27188,290.32584,501.21362,290.3508,501.17206C290.45892,500.9807,290.75006,500.19882,290.8083,499.9368C290.8291,499.84528,290.879,499.66644,290.91644,499.54166C290.95386,499.4169,291.00793,499.13406,291.03705,498.9178C291.06616,498.70154,291.09113,498.51434,291.09528,498.50604C291.09528,498.49774,291.13272,498.50604,291.17432,498.52267C291.21173,498.5393,291.30325,498.57257,291.36978,498.59753 Z M292.9461,502.67352C292.97107,502.8274,292.96274,502.92722,292.90866,503.1019C292.87125,503.22668,292.82965,503.418,292.8255,503.52612C292.81717,503.63428,292.8047,503.75073,292.7922,503.784C292.7839,503.81726,292.7839,503.83392,292.7922,503.8131C292.8255,503.75903,292.88788,503.784,292.88788,503.85052C292.88788,503.92957,292.75894,504.15833,292.7132,504.15833C292.69656,504.15833,292.69238,504.1001,292.70905,504.0294C292.72983,503.90875,292.72568,503.9046,292.65497,503.95038C292.61337,503.9795,292.52188,504.07513,292.45947,504.16663C292.34302,504.333,292.0727,504.48688,291.90216,504.49106C291.73163,504.49106,291.77737,504.09595,292.01447,503.47205C292.0311,503.4263,292.08514,503.3015,292.13507,503.19757C292.18082,503.09357,292.2224,502.9896,292.2224,502.9688C292.2224,502.91473,292.3846,502.6111,292.46365,502.52377C292.51355,502.4697,292.5801,502.45306,292.71735,502.4614L292.90866,502.47388L292.9461,502.67352 Z"/> </g> </g> </g> </svg>